<svg version="1.1" viewBox="0.0 0.0 960.0 720.0" fill="none" stroke="none" stroke-linecap="square" stroke-miterlimit="10" xmlns:xlink="http://www.w3.org/1999/xlink" xmlns="http://www.w3.org/2000/svg"><clipPath id="p.0"><path d="m0 0l960.0 0l0 720.0l-960.0 0l0 -720.0z" clip-rule="nonzero"/></clipPath><g clip-path="url(#p.0)"><path fill="#000000" fill-opacity="0.0" d="m0 0l960.0 0l0 720.0l-960.0 0z" fill-rule="evenodd"/><path fill="#ffffff" d="m178.0 102.0l446.01575 0l0 426.99213l-446.01575 0z" fill-rule="evenodd"/><path stroke="#000000" stroke-width="1.0" stroke-linejoin="round" stroke-linecap="butt" d="m178.0 102.0l446.01575 0l0 426.99213l-446.01575 0z" fill-rule="evenodd"/><path fill="#cfe2f3" d="m226.36482 166.36482l178.64568 0l0 160.9134l-178.64568 0z" fill-rule="evenodd"/><path stroke="#000000" stroke-width="1.0" stroke-linejoin="round" stroke-linecap="butt" d="m226.36482 166.36482l178.64568 0l0 160.9134l-178.64568 0z" fill-rule="evenodd"/><path fill="#cfe2f3" d="m405.0105 166.36482l178.64569 0l0 160.9134l-178.64569 0z" fill-rule="evenodd"/><path stroke="#000000" stroke-width="1.0" stroke-linejoin="round" stroke-linecap="butt" d="m405.0105 166.36482l178.64569 0l0 160.9134l-178.64569 0z" fill-rule="evenodd"/><path fill="#cfe2f3" d="m226.36482 327.27823l178.64568 0l0 160.91336l-178.64568 0z" fill-rule="evenodd"/><path stroke="#000000" stroke-width="1.0" stroke-linejoin="round" stroke-linecap="butt" d="m226.36482 327.27823l178.64568 0l0 160.91336l-178.64568 0z" fill-rule="evenodd"/><path fill="#cfe2f3" d="m405.0105 327.27823l178.64569 0l0 160.91336l-178.64569 0z" fill-rule="evenodd"/><path stroke="#000000" stroke-width="1.0" stroke-linejoin="round" stroke-linecap="butt" d="m405.0105 327.27823l178.64569 0l0 160.91336l-178.64569 0z" fill-rule="evenodd"/><path fill="#000000" fill-opacity="0.0" d="m493.6168 290.958l0.06298828 69.03937" fill-rule="evenodd"/><path stroke="#000000" stroke-width="1.0" stroke-linejoin="round" stroke-linecap="butt" d="m493.6168 290.958l0.06298828 69.03937" fill-rule="evenodd"/><path fill="#000000" fill-opacity="0.0" d="m315.65616 290.958l0.06298828 69.03937" fill-rule="evenodd"/><path stroke="#000000" stroke-width="1.0" stroke-linejoin="round" stroke-linecap="butt" d="m315.65616 290.958l0.06298828 69.03937" fill-rule="evenodd"/><path fill="#ff0000" d="m210.71803 320.81073l11.373535 0l0 -9.915314l9.333923 0l0 9.915314l11.373535 0l0 9.333923l-11.373535 0l0 9.915314l-9.333923 0l0 -9.915314l-11.373535 0z" fill-rule="evenodd"/><path stroke="#000000" stroke-width="1.0" stroke-linejoin="round" stroke-linecap="butt" d="m210.71803 320.81073l11.373535 0l0 -9.915314l9.333923 0l0 9.915314l11.373535 0l0 9.333923l-11.373535 0l0 9.915314l-9.333923 0l0 -9.915314l-11.373535 0z" fill-rule="evenodd"/><path fill="#000000" d="m570.13025 321.46262l28.007202 0l0 8.030151l-28.007202 0z" fill-rule="evenodd"/><path stroke="#000000" stroke-width="1.0" stroke-linejoin="round" stroke-linecap="butt" d="m570.13025 321.46262l28.007202 0l0 8.030151l-28.007202 0z" fill-rule="evenodd"/><path fill="#000000" fill-opacity="0.0" d="m222.65355 160.0l102.99211 0l0 26.015747l-102.99211 0z" fill-rule="evenodd"/><path fill="#000000" d="m246.4973 186.7875q0 2.34375 -0.875 4.171875q-0.859375 1.828125 -2.375 2.875q-1.515625 1.03125 -3.4375 1.03125q-1.921875 0 -3.4375 -1.03125q-1.5 -1.046875 -2.375 -2.875q-0.875 -1.828125 -0.875 -4.171875q0 -2.34375 0.875 -4.171875q0.875 -1.828125 2.375 -2.875q1.515625 -1.046875 3.4375 -1.046875q1.921875 0 3.4375 1.046875q1.515625 1.046875 2.375 2.875q0.875 1.828125 0.875 4.171875zm-1.828125 0q0 -1.890625 -0.625 -3.328125q-0.609375 -1.4375 -1.703125 -2.25q-1.09375 -0.8125 -2.53125 -0.8125q-1.4375 0 -2.53125 0.8125q-1.09375 0.8125 -1.71875 2.25q-0.625 1.4375 -0.625 3.328125q0 1.890625 0.625 3.34375q0.625 1.4375 1.71875 2.234375q1.09375 0.796875 2.53125 0.796875q1.4375 0 2.53125 -0.8125q1.09375 -0.8125 1.703125 -2.234375q0.625 -1.4375 0.625 -3.328125zm5.032318 7.8125l0 -2.609375l1.578125 0l0 2.609375l-1.578125 0zm13.746323 -13.859375l-10.20311 0l0 -1.6875l13.093735 0l-9.578125 18.9375l-2.0781097 0l8.76561 -17.25zm9.736053 17.828125q-2.0 0 -3.625 -1.0q-1.625 -1.0 -2.421875 -2.625l1.1875 -0.90625q0.75 1.3125 2.046875 2.109375q1.296875 0.796875 2.84375 0.796875q1.328125 0 2.375 -0.59375q1.0625 -0.578125 1.6875 -1.625q0.625 -1.03125 0.625 -2.390625q0 -1.3125 -0.609375 -2.3125q-0.59375 -1.0 -1.625 -1.546875q-1.015625 -0.5625 -2.296875 -0.5625q-1.234375 0 -2.359375 0.546875q-1.109375 0.546875 -1.796875 1.578125l-1.6875 0l2.109375 -10.65625l9.140625 0l0 1.671875l-7.78125 0l-1.3125 6.796875q0.703125 -0.734375 1.703125 -1.140625q1.015625 -0.421875 2.203125 -0.421875q1.71875 0 3.125 0.78125q1.40625 0.765625 2.21875 2.125q0.828125 1.359375 0.828125 3.109375q0 1.875 -0.890625 3.28125q-0.890625 1.421875 -2.390625 2.203125q-1.484375 0.78125 -3.296875 0.78125zm9.413452 -22.890625l6.765625 16.609375l6.75 -16.609375l1.9375 0l-7.828125 18.921875l-1.71875 0l-7.859375 -18.921875l1.953125 0z" fill-rule="nonzero"/><path fill="#000000" fill-opacity="0.0" d="m405.0105 160.0l58.015747 0l0 26.015747l-58.015747 0z" fill-rule="evenodd"/><path fill="#000000" d="m428.85425 186.7875q0 2.34375 -0.875 4.171875q-0.859375 1.828125 -2.375 2.875q-1.515625 1.03125 -3.4375 1.03125q-1.921875 0 -3.4375 -1.03125q-1.5 -1.046875 -2.375 -2.875q-0.875 -1.828125 -0.875 -4.171875q0 -2.34375 0.875 -4.171875q0.875 -1.828125 2.375 -2.875q1.515625 -1.046875 3.4375 -1.046875q1.921875 0 3.4375 1.046875q1.515625 1.046875 2.375 2.875q0.875 1.828125 0.875 4.171875zm-1.828125 0q0 -1.890625 -0.625 -3.328125q-0.609375 -1.4375 -1.703125 -2.25q-1.09375 -0.8125 -2.53125 -0.8125q-1.4375 0 -2.53125 0.8125q-1.09375 0.8125 -1.71875 2.25q-0.625 1.4375 -0.625 3.328125q0 1.890625 0.625 3.34375q0.625 1.4375 1.71875 2.234375q1.09375 0.796875 2.53125 0.796875q1.4375 0 2.53125 -0.8125q1.09375 -0.8125 1.703125 -2.234375q0.625 -1.4375 0.625 -3.328125zm4.55484 -11.109375l6.765625 16.609375l6.75 -16.609375l1.9375 0l-7.828125 18.921875l-1.71875 0l-7.859375 -18.921875l1.953125 0z" fill-rule="nonzero"/><path fill="#000000" fill-opacity="0.0" d="m493.6168 160.0l122.55118 0l0 26.015747l-122.55118 0z" fill-rule="evenodd"/><path fill="#000000" d="m504.35117 188.17813l0 -1.6875l7.7812805 0l0 1.6875l-7.7812805 0zm20.182648 4.765625l0 1.65625l-9.046875 0l0 -1.65625l3.796875 0l0 -11.40625q-0.21875 0.328125 -0.734375 0.703125q-0.5 0.359375 -1.15625 0.6875q-0.65625 0.3125 -1.296875 0.53125q-0.625 0.21875 -1.171875 0.21875l0 -1.765625q0.625 0 1.34375 -0.34375q0.71875 -0.34375 1.375 -0.796875q0.671875 -0.453125 1.125 -0.859375q0.453125 -0.40625 0.515625 -0.53125l1.859375 0l0 13.5625l3.390625 0zm2.3150635 1.65625l0 -2.609375l1.578125 0l0 2.609375l-1.578125 0zm4.475525 0q0 -0.90625 0.15625 -1.828125q0.171875 -0.921875 0.625 -1.828125q0.453125 -0.90625 1.328125 -1.734375q0.875 -0.84375 2.3125 -1.59375q0.78125 -0.40625 1.609375 -0.78125q0.828125 -0.390625 1.546875 -0.859375q0.734375 -0.46875 1.171875 -1.0625q0.453125 -0.609375 0.453125 -1.421875q0 -0.671875 -0.390625 -1.3125q-0.390625 -0.640625 -1.171875 -1.03125q-0.78125 -0.40625 -1.96875 -0.40625q-0.84375 0 -1.546875 0.25q-0.6875 0.234375 -1.21875 0.59375q-0.53125 0.359375 -0.90625 0.71875q-0.375 0.359375 -0.609375 0.59375l-1.15625 -1.25q0.140625 -0.15625 0.609375 -0.5625q0.46875 -0.421875 1.1875 -0.875q0.734375 -0.453125 1.734375 -0.765625q1.0 -0.328125 2.203125 -0.328125q1.625 0 2.78125 0.578125q1.171875 0.5625 1.78125 1.53125q0.609375 0.953125 0.609375 2.078125q0 1.09375 -0.46875 1.875q-0.46875 0.78125 -1.203125 1.359375q-0.71875 0.578125 -1.515625 1.0q-0.78125 0.40625 -1.421875 0.6875q-1.25 0.59375 -2.109375 1.1875q-0.84375 0.578125 -1.359375 1.1875q-0.5 0.59375 -0.78125 1.171875q-0.28125 0.5625 -0.390625 1.171875l9.546875 0l0 1.65625l-11.4375 0zm19.700378 3.96875q-2.0 0 -3.625 -1.0q-1.625 -1.0 -2.421875 -2.625l1.1875 -0.90625q0.75 1.3125 2.046875 2.109375q1.296875 0.796875 2.84375 0.796875q1.328125 0 2.375 -0.59375q1.0625 -0.578125 1.6875 -1.625q0.625 -1.03125 0.625 -2.390625q0 -1.3125 -0.609375 -2.3125q-0.59375 -1.0 -1.625 -1.546875q-1.015625 -0.5625 -2.296875 -0.5625q-1.234375 0 -2.359375 0.546875q-1.109375 0.546875 -1.796875 1.578125l-1.6875 0l2.109375 -10.65625l9.140625 0l0 1.671875l-7.78125 0l-1.3125 6.796875q0.703125 -0.734375 1.703125 -1.140625q1.015625 -0.421875 2.203125 -0.421875q1.71875 0 3.125 0.78125q1.40625 0.765625 2.21875 2.125q0.828125 1.359375 0.828125 3.109375q0 1.875 -0.890625 3.28125q-0.890625 1.421875 -2.390625 2.203125q-1.484375 0.78125 -3.296875 0.78125zm9.413391 -22.890625l6.765625 16.609375l6.75 -16.609375l1.9375 0l-7.828125 18.921875l-1.71875 0l-7.859375 -18.921875l1.953125 0z" fill-rule="nonzero"/><path fill="#000000" fill-opacity="0.0" d="m217.38846 319.30447l98.33069 0l0 26.015747l-98.33069 0z" fill-rule="evenodd"/><path fill="#000000" d="m242.3264 347.60757q1.203125 0.1875 2.046875 0.859375q0.859375 0.671875 1.34375 1.6875q0.484375 1.0 0.484375 2.28125q0 1.609375 -0.78125 2.828125q-0.765625 1.21875 -2.15625 1.890625q-1.390625 0.671875 -3.234375 0.671875q-2.015625 0 -3.546875 -0.8125q-1.515625 -0.8125 -2.28125 -2.25l1.25 -1.15625q0.59375 1.15625 1.734375 1.859375q1.140625 0.703125 2.84375 0.703125q1.984375 0 3.140625 -0.984375q1.15625 -0.96875 1.15625 -2.78125q0 -1.8125 -1.21875 -2.890625q-1.203125 -1.078125 -3.4375 -1.078125l-0.671875 0l0 -1.546875l0.71875 0q2.046875 0 3.140625 -0.953125q1.09375 -0.96875 1.09375 -2.453125q0 -1.09375 -0.515625 -1.8125q-0.5 -0.71875 -1.359375 -1.09375q-0.859375 -0.375 -1.984375 -0.375q-1.515625 0 -2.6875 0.6875q-1.15625 0.671875 -1.734375 1.875l-1.171875 -1.125q0.453125 -0.921875 1.296875 -1.609375q0.859375 -0.703125 2.0 -1.09375q1.140625 -0.390625 2.453125 -0.390625q1.65625 0 2.90625 0.609375q1.25 0.59375 1.96875 1.671875q0.71875 1.0625 0.71875 2.5q0 1.0625 -0.421875 1.96875q-0.421875 0.90625 -1.21875 1.515625q-0.78125 0.609375 -1.875 0.796875zm6.8281403 6.296875l0 -2.609375l1.578125 0l0 2.609375l-1.578125 0zm4.4755096 0q0 -0.90625 0.15625 -1.828125q0.171875 -0.921875 0.625 -1.828125q0.453125 -0.90625 1.328125 -1.734375q0.87498474 -0.84375 2.3124847 -1.59375q0.78125 -0.40625 1.609375 -0.78125q0.828125 -0.390625 1.546875 -0.859375q0.734375 -0.46875 1.171875 -1.0625q0.453125 -0.609375 0.453125 -1.421875q0 -0.671875 -0.390625 -1.3125q-0.390625 -0.640625 -1.171875 -1.03125q-0.78125 -0.40625 -1.96875 -0.40625q-0.84375 0 -1.546875 0.25q-0.6875 0.234375 -1.21875 0.59375q-0.53125 0.359375 -0.90623474 0.71875q-0.375 0.359375 -0.609375 0.59375l-1.15625 -1.25q0.140625 -0.15625 0.609375 -0.5625q0.46875 -0.421875 1.1875 -0.875q0.73435974 -0.453125 1.7343597 -0.765625q1.0 -0.328125 2.203125 -0.328125q1.625 0 2.78125 0.578125q1.171875 0.5625 1.78125 1.53125q0.609375 0.953125 0.609375 2.078125q0 1.09375 -0.46875 1.875q-0.46875 0.78125 -1.203125 1.359375q-0.71875 0.578125 -1.515625 1.0q-0.78125 0.40625 -1.421875 0.6875q-1.25 0.59375 -2.109375 1.1875q-0.84375 0.578125 -1.359375 1.1875q-0.5 0.59375 -0.78123474 1.171875q-0.28125 0.5625 -0.390625 1.171875l9.54686 0l0 1.65625l-11.437485 0zm19.700333 3.96875q-2.0 0 -3.625 -1.0q-1.625 -1.0 -2.421875 -2.625l1.1875 -0.90625q0.75 1.3125 2.046875 2.109375q1.296875 0.796875 2.84375 0.796875q1.328125 0 2.375 -0.59375q1.0625 -0.578125 1.6875 -1.625q0.625 -1.03125 0.625 -2.390625q0 -1.3125 -0.609375 -2.3125q-0.59375 -1.0 -1.625 -1.546875q-1.015625 -0.5625 -2.296875 -0.5625q-1.234375 0 -2.359375 0.546875q-1.109375 0.546875 -1.796875 1.578125l-1.6875 0l2.109375 -10.65625l9.140625 0l0 1.671875l-7.78125 0l-1.3125 6.796875q0.703125 -0.734375 1.703125 -1.140625q1.015625 -0.421875 2.203125 -0.421875q1.71875 0 3.125 0.78125q1.40625 0.765625 2.21875 2.125q0.828125 1.359375 0.828125 3.109375q0 1.875 -0.890625 3.28125q-0.890625 1.421875 -2.390625 2.203125q-1.484375 0.78125 -3.296875 0.78125zm9.413452 -22.890625l6.765625 16.609375l6.75 -16.609375l1.9375 0l-7.828125 18.921875l-1.71875 0l-7.859375 -18.921875l1.953125 0z" fill-rule="nonzero"/><path fill="#000000" fill-opacity="0.0" d="m273.10498 243.63911l85.165375 0l0 26.015732l-85.165375 0z" fill-rule="evenodd"/><path fill="#000000" d="m299.73044 276.58286l0 1.65625l-9.046875 0l0 -1.65625l3.796875 0l0 -11.40625q-0.21875 0.328125 -0.734375 0.703125q-0.5 0.359375 -1.15625 0.6875q-0.65625 0.3125 -1.296875 0.53125q-0.625 0.21875 -1.171875 0.21875l0 -1.765625q0.625 0 1.34375 -0.34375q0.71875 -0.34375 1.375 -0.796875q0.671875 -0.453125 1.125 -0.859375q0.453125 -0.40625 0.515625 -0.53125l1.859375 0l0 13.5625l3.390625 0zm2.3150635 1.65625l0 -2.609375l1.578125 0l0 2.609375l-1.578125 0zm14.131775 -1.65625l0 1.65625l-9.046875 0l0 -1.65625l3.796875 0l0 -11.40625q-0.21875 0.328125 -0.734375 0.703125q-0.5 0.359375 -1.15625 0.6875q-0.65625 0.3125 -1.296875 0.53125q-0.625 0.21875 -1.171875 0.21875l0 -1.765625q0.625 0 1.34375 -0.34375q0.71875 -0.34375 1.375 -0.796875q0.671875 -0.453125 1.125 -0.859375q0.453125 -0.40625 0.515625 -0.53125l1.859375 0l0 13.5625l3.390625 0zm1.5708923 -17.265625l6.765625 16.609375l6.75 -16.609375l1.9375 0l-7.828125 18.921875l-1.71875 0l-7.859375 -18.921875l1.953125 0z" fill-rule="nonzero"/><path fill="#000000" fill-opacity="0.0" d="m393.86615 282.39108l67.33856 0l0 26.015747l-67.33856 0z" fill-rule="evenodd"/><path fill="#000000" d="m424.5072 309.1786q0 2.34375 -0.875 4.171875q-0.859375 1.828125 -2.375 2.875q-1.515625 1.03125 -3.4375 1.03125q-1.921875 0 -3.4375 -1.03125q-1.5 -1.046875 -2.375 -2.875q-0.875 -1.828125 -0.875 -4.171875q0 -2.34375 0.875 -4.171875q0.875 -1.828125 2.375 -2.875q1.515625 -1.046875 3.4375 -1.046875q1.921875 0 3.4375 1.046875q1.515625 1.046875 2.375 2.875q0.875 1.828125 0.875 4.171875zm-1.828125 0q0 -1.890625 -0.625 -3.328125q-0.609375 -1.4375 -1.703125 -2.25q-1.09375 -0.8125 -2.53125 -0.8125q-1.4375 0 -2.53125 0.8125q-1.09375 0.8125 -1.71875 2.25q-0.625 1.4375 -0.625 3.328125q0 1.890625 0.625 3.34375q0.625 1.4375 1.71875 2.234375q1.09375 0.796875 2.53125 0.796875q1.4375 0 2.53125 -0.8125q1.09375 -0.8125 1.703125 -2.234375q0.625 -1.4375 0.625 -3.328125zm4.55484 -11.109375l6.765625 16.609375l6.75 -16.609375l1.9375 0l-7.828125 18.921875l-1.71875 0l-7.859375 -18.921875l1.953125 0z" fill-rule="nonzero"/><path fill="#000000" fill-opacity="0.0" d="m449.2047 245.92651l102.99213 0l0 26.015747l-102.99213 0z" fill-rule="evenodd"/><path fill="#000000" d="m459.9391 274.10464l0 -1.6875l7.78125 0l0 1.6875l-7.78125 0zm20.182648 4.765625l0 1.65625l-9.046875 0l0 -1.65625l3.796875 0l0 -11.40625q-0.21875 0.328125 -0.734375 0.703125q-0.5 0.359375 -1.15625 0.6875q-0.65625 0.3125 -1.296875 0.53125q-0.625 0.21875 -1.171875 0.21875l0 -1.765625q0.625 0 1.34375 -0.34375q0.71875 -0.34375 1.375 -0.796875q0.671875 -0.453125 1.125 -0.859375q0.453125 -0.40625 0.515625 -0.53125l1.859375 0l0 13.5625l3.390625 0zm2.315094 1.65625l0 -2.609375l1.578125 0l0 2.609375l-1.578125 0zm4.2567444 -8.71875q0 1.78125 0.859375 3.234375q0.875 1.453125 2.359375 2.3125q1.5 0.859375 3.296875 0.859375q1.21875 0 2.25 -0.421875q1.046875 -0.4375 1.84375 -1.21875q0.8125 -0.796875 1.171875 -1.796875q-0.015625 2.609375 -0.671875 4.453125q-0.65625 1.828125 -1.8125 2.8125q-1.15625 0.984375 -2.765625 0.984375q-1.453125 0 -2.6875 -0.828125q-1.21875 -0.8125 -1.78125 -2.15625l-1.171875 1.078125q0.765625 1.625 2.265625 2.5625q1.515625 0.953125 3.375 0.953125q2.078125 0 3.65625 -1.265625q1.578125 -1.25 2.453125 -3.765625q0.875 -2.515625 0.875 -6.375q0 -2.484375 -0.875 -4.25q-0.859375 -1.78125 -2.390625 -2.71875q-1.53125 -0.953125 -3.53125 -0.953125q-1.859375 0 -3.390625 0.875q-1.53125 0.875 -2.4375 2.34375q-0.890625 1.46875 -0.890625 3.28125zm6.703125 -4.90625q1.328125 0 2.453125 0.671875q1.140625 0.671875 1.796875 1.796875q0.671875 1.109375 0.671875 2.4375q0 1.328125 -0.671875 2.453125q-0.65625 1.125 -1.78125 1.796875q-1.109375 0.65625 -2.46875 0.65625q-1.34375 0 -2.484375 -0.65625q-1.125 -0.671875 -1.8125 -1.796875q-0.671875 -1.125 -0.671875 -2.453125q0 -1.359375 0.671875 -2.453125q0.6875 -1.109375 1.8125 -1.78125q1.125 -0.671875 2.484375 -0.671875zm9.194458 -5.296875l6.765625 16.609375l6.7500305 -16.609375l1.9375 0l-7.8281555 18.921875l-1.71875 0l-7.859375 -18.921875l1.953125 0z" fill-rule="nonzero"/><path fill="#000000" fill-opacity="0.0" d="m480.0 319.30447l136.18896 0l0 26.015747l-136.18896 0z" fill-rule="evenodd"/><path fill="#000000" d="m504.329 347.48257l0 -1.6875l7.7812195 0l0 1.6875l-7.7812195 0zm16.49887 10.390625q-2.0 0 -3.625 -1.0q-1.625 -1.0 -2.421875 -2.625l1.1875 -0.90625q0.75 1.3125 2.046875 2.109375q1.296875 0.796875 2.84375 0.796875q1.328125 0 2.375 -0.59375q1.0625 -0.578125 1.6875 -1.625q0.625 -1.03125 0.625 -2.390625q0 -1.3125 -0.609375 -2.3125q-0.59375 -1.0 -1.625 -1.546875q-1.015625 -0.5625 -2.296875 -0.5625q-1.234375 0 -2.359375 0.546875q-1.109375 0.546875 -1.796875 1.578125l-1.6875 0l2.109375 -10.65625l9.140625 0l0 1.671875l-7.78125 0l-1.3125 6.796875q0.703125 -0.734375 1.703125 -1.140625q1.015625 -0.421875 2.203125 -0.421875q1.71875 0 3.125 0.78125q1.40625 0.765625 2.21875 2.125q0.828125 1.359375 0.828125 3.109375q0 1.875 -0.890625 3.28125q-0.890625 1.421875 -2.390625 2.203125q-1.484375 0.78125 -3.296875 0.78125zm9.277649 -3.96875l0 -2.609375l1.578125 0l0 2.609375l-1.578125 0zm13.746338 -13.859375l-10.203125 0l0 -1.6875l13.09375 0l-9.578125 18.9375l-2.078125 0l8.765625 -17.25zm9.736023 17.828125q-2.0 0 -3.625 -1.0q-1.625 -1.0 -2.421875 -2.625l1.1875 -0.90625q0.75 1.3125 2.046875 2.109375q1.296875 0.796875 2.84375 0.796875q1.328125 0 2.375 -0.59375q1.0625 -0.578125 1.6875 -1.625q0.625 -1.03125 0.625 -2.390625q0 -1.3125 -0.609375 -2.3125q-0.59375 -1.0 -1.625 -1.546875q-1.015625 -0.5625 -2.296875 -0.5625q-1.234375 0 -2.359375 0.546875q-1.109375 0.546875 -1.796875 1.578125l-1.6875 0l2.109375 -10.65625l9.140625 0l0 1.671875l-7.78125 0l-1.3125 6.796875q0.703125 -0.734375 1.703125 -1.140625q1.015625 -0.421875 2.203125 -0.421875q1.71875 0 3.125 0.78125q1.40625 0.765625 2.21875 2.125q0.828125 1.359375 0.828125 3.109375q0 1.875 -0.890625 3.28125q-0.890625 1.421875 -2.390625 2.203125q-1.484375 0.78125 -3.296875 0.78125zm9.413452 -22.890625l6.765625 16.609375l6.75 -16.609375l1.9375 0l-7.828125 18.921875l-1.71875 0l-7.859375 -18.921875l1.953125 0z" fill-rule="nonzero"/><path fill="#000000" fill-opacity="0.0" d="m222.65355 443.61942l107.18111 0l0 26.015747l-107.18111 0z" fill-rule="evenodd"/><path fill="#000000" d="m249.27899 476.56317l0 1.65625l-9.046875 0l0 -1.65625l3.796875 0l0 -11.40625q-0.21875 0.328125 -0.734375 0.703125q-0.5 0.359375 -1.15625 0.6875q-0.65625 0.3125 -1.296875 0.53125q-0.625 0.21875 -1.171875 0.21875l0 -1.765625q0.625 0 1.34375 -0.34375q0.71875 -0.34375 1.375 -0.796875q0.671875 -0.453125 1.125 -0.859375q0.453125 -0.40625 0.515625 -0.53125l1.859375 0l0 13.5625l3.390625 0zm2.3150787 1.65625l0 -2.609375l1.578125 0l0 2.609375l-1.578125 0zm4.4755096 0q0 -0.90625 0.15625 -1.828125q0.171875 -0.921875 0.625 -1.828125q0.453125 -0.90625 1.328125 -1.734375q0.875 -0.84375 2.3125 -1.59375q0.78125 -0.40625 1.609375 -0.78125q0.828125 -0.390625 1.546875 -0.859375q0.734375 -0.46875 1.171875 -1.0625q0.453125 -0.609375 0.453125 -1.421875q0 -0.671875 -0.390625 -1.3125q-0.390625 -0.640625 -1.171875 -1.03125q-0.78125 -0.40625 -1.96875 -0.40625q-0.84375 0 -1.546875 0.25q-0.6875 0.234375 -1.21875 0.59375q-0.53125 0.359375 -0.90625 0.71875q-0.375 0.359375 -0.609375 0.59375l-1.15625 -1.25q0.140625 -0.15625 0.609375 -0.5625q0.46875 -0.421875 1.1875 -0.875q0.734375 -0.453125 1.734375 -0.765625q1.0 -0.328125 2.203125 -0.328125q1.625 0 2.78125 0.578125q1.171875 0.5625 1.78125 1.53125q0.609375 0.953125 0.609375 2.078125q0 1.09375 -0.46875 1.875q-0.46875 0.78125 -1.203125 1.359375q-0.71875 0.578125 -1.515625 1.0q-0.78125 0.40625 -1.421875 0.6875q-1.25 0.59375 -2.109375 1.1875q-0.84375 0.578125 -1.359375 1.1875q-0.5 0.59375 -0.78125 1.171875q-0.28125 0.5625 -0.390625 1.171875l9.546875 0l0 1.65625l-11.4375 0zm19.700348 3.96875q-2.0 0 -3.625 -1.0q-1.625 -1.0 -2.421875 -2.625l1.1875 -0.90625q0.75 1.3125 2.046875 2.109375q1.296875 0.796875 2.84375 0.796875q1.328125 0 2.375 -0.59375q1.0625 -0.578125 1.6875 -1.625q0.625 -1.03125 0.625 -2.390625q0 -1.3125 -0.609375 -2.3125q-0.59375 -1.0 -1.625 -1.546875q-1.015625 -0.5625 -2.296875 -0.5625q-1.234375 0 -2.359375 0.546875q-1.109375 0.546875 -1.796875 1.578125l-1.6875 0l2.109375 -10.65625l9.140625 0l0 1.671875l-7.78125 0l-1.3125 6.796875q0.703125 -0.734375 1.703125 -1.140625q1.015625 -0.421875 2.203125 -0.421875q1.71875 0 3.125 0.78125q1.40625 0.765625 2.21875 2.125q0.828125 1.359375 0.828125 3.109375q0 1.875 -0.890625 3.28125q-0.890625 1.421875 -2.390625 2.203125q-1.484375 0.78125 -3.296875 0.78125zm9.413422 -22.890625l6.765625 16.609375l6.75 -16.609375l1.9375 0l-7.828125 18.921875l-1.71875 0l-7.859375 -18.921875l1.953125 0z" fill-rule="nonzero"/><path fill="#000000" fill-opacity="0.0" d="m402.62466 443.61942l90.99213 0l0 26.015747l-90.99213 0z" fill-rule="evenodd"/><path fill="#000000" d="m426.4684 470.40692q0 2.34375 -0.875 4.171875q-0.859375 1.828125 -2.375 2.875q-1.515625 1.03125 -3.4375 1.03125q-1.921875 0 -3.4375 -1.03125q-1.5 -1.046875 -2.375 -2.875q-0.875 -1.828125 -0.875 -4.171875q0 -2.34375 0.875 -4.171875q0.875 -1.828125 2.375 -2.875q1.515625 -1.046875 3.4375 -1.046875q1.921875 0 3.4375 1.046875q1.515625 1.046875 2.375 2.875q0.875 1.828125 0.875 4.171875zm-1.828125 0q0 -1.890625 -0.625 -3.328125q-0.609375 -1.4375 -1.703125 -2.25q-1.09375 -0.8125 -2.53125 -0.8125q-1.4375 0 -2.53125 0.8125q-1.09375 0.8125 -1.71875 2.25q-0.625 1.4375 -0.625 3.328125q0 1.890625 0.625 3.34375q0.625 1.4375 1.71875 2.234375q1.09375 0.796875 2.53125 0.796875q1.4375 0 2.53125 -0.8125q1.09375 -0.8125 1.703125 -2.234375q0.625 -1.4375 0.625 -3.328125zm4.55484 -11.109375l6.765625 16.609375l6.75 -16.609375l1.9375 0l-7.828125 18.921875l-1.71875 0l-7.859375 -18.921875l1.953125 0z" fill-rule="nonzero"/><path fill="#000000" fill-opacity="0.0" d="m489.4908 443.61942l107.18112 0l0 26.015747l-107.18112 0z" fill-rule="evenodd"/><path fill="#000000" d="m500.2252 471.79755l0 -1.6875l7.78125 0l0 1.6875l-7.78125 0zm20.182648 4.765625l0 1.65625l-9.046875 0l0 -1.65625l3.796875 0l0 -11.40625q-0.21875 0.328125 -0.734375 0.703125q-0.5 0.359375 -1.15625 0.6875q-0.65625 0.3125 -1.296875 0.53125q-0.625 0.21875 -1.171875 0.21875l0 -1.765625q0.625 0 1.34375 -0.34375q0.71875 -0.34375 1.375 -0.796875q0.671875 -0.453125 1.125 -0.859375q0.453125 -0.40625 0.515625 -0.53125l1.859375 0l0 13.5625l3.390625 0zm2.3150635 1.65625l0 -2.609375l1.578125 0l0 2.609375l-1.578125 0zm4.475525 0q0 -0.90625 0.15625 -1.828125q0.171875 -0.921875 0.625 -1.828125q0.453125 -0.90625 1.328125 -1.734375q0.875 -0.84375 2.3125 -1.59375q0.78125 -0.40625 1.609375 -0.78125q0.828125 -0.390625 1.546875 -0.859375q0.734375 -0.46875 1.171875 -1.0625q0.453125 -0.609375 0.453125 -1.421875q0 -0.671875 -0.390625 -1.3125q-0.390625 -0.640625 -1.171875 -1.03125q-0.78125 -0.40625 -1.96875 -0.40625q-0.84375 0 -1.546875 0.25q-0.6875 0.234375 -1.21875 0.59375q-0.53125 0.359375 -0.90625 0.71875q-0.375 0.359375 -0.609375 0.59375l-1.15625 -1.25q0.140625 -0.15625 0.609375 -0.5625q0.46875 -0.421875 1.1875 -0.875q0.734375 -0.453125 1.734375 -0.765625q1.0 -0.328125 2.203125 -0.328125q1.625 0 2.78125 0.578125q1.171875 0.5625 1.78125 1.53125q0.609375 0.953125 0.609375 2.078125q0 1.09375 -0.46875 1.875q-0.46875 0.78125 -1.203125 1.359375q-0.71875 0.578125 -1.515625 1.0q-0.78125 0.40625 -1.421875 0.6875q-1.25 0.59375 -2.109375 1.1875q-0.84375 0.578125 -1.359375 1.1875q-0.5 0.59375 -0.78125 1.171875q-0.28125 0.5625 -0.390625 1.171875l9.546875 0l0 1.65625l-11.4375 0zm19.700317 3.96875q-2.0 0 -3.625 -1.0q-1.625 -1.0 -2.421875 -2.625l1.1875 -0.90625q0.75 1.3125 2.046875 2.109375q1.296875 0.796875 2.84375 0.796875q1.328125 0 2.375 -0.59375q1.0625 -0.578125 1.6875 -1.625q0.625 -1.03125 0.625 -2.390625q0 -1.3125 -0.609375 -2.3125q-0.59375 -1.0 -1.625 -1.546875q-1.015625 -0.5625 -2.296875 -0.5625q-1.234375 0 -2.359375 0.546875q-1.109375 0.546875 -1.796875 1.578125l-1.6875 0l2.109375 -10.65625l9.140625 0l0 1.671875l-7.78125 0l-1.3125 6.796875q0.703125 -0.734375 1.703125 -1.140625q1.015625 -0.421875 2.203125 -0.421875q1.71875 0 3.125 0.78125q1.40625 0.765625 2.21875 2.125q0.828125 1.359375 0.828125 3.109375q0 1.875 -0.890625 3.28125q-0.890625 1.421875 -2.390625 2.203125q-1.484375 0.78125 -3.296875 0.78125zm9.413452 -22.890625l6.765625 16.609375l6.75 -16.609375l1.9375 0l-7.828125 18.921875l-1.71875 0l-7.859375 -18.921875l1.953125 0z" fill-rule="nonzero"/><path fill="#000000" fill-opacity="0.0" d="m205.6483 118.80577l576.0 0l0 67.2126l-576.0 0z" fill-rule="evenodd"/><path fill="#000000" d="m229.49205 145.59328q0 2.34375 -0.875 4.171875q-0.859375 1.828125 -2.375 2.875q-1.515625 1.03125 -3.4375 1.03125q-1.921875 0 -3.4375 -1.03125q-1.5 -1.046875 -2.375 -2.875q-0.875 -1.828125 -0.875 -4.171875q0 -2.34375 0.875 -4.171875q0.875 -1.828125 2.375 -2.875q1.515625 -1.046875 3.4375 -1.046875q1.921875 0 3.4375 1.046875q1.515625 1.046875 2.375 2.875q0.875 1.828125 0.875 4.171875zm-1.828125 0q0 -1.890625 -0.625 -3.328125q-0.609375 -1.4375 -1.703125 -2.25q-1.09375 -0.8125 -2.53125 -0.8125q-1.4375 0 -2.53125 0.8125q-1.09375 0.8125 -1.71875 2.25q-0.625 1.4375 -0.625 3.328125q0 1.890625 0.625 3.34375q0.625 1.4375 1.71875 2.234375q1.09375 0.796875 2.53125 0.796875q1.4375 0 2.53125 -0.8125q1.09375 -0.8125 1.703125 -2.234375q0.625 -1.4375 0.625 -3.328125zm11.329193 8.078125q-1.53125 0 -2.796875 -0.5625q-1.265625 -0.578125 -2.21875 -1.59375q-0.9375 -1.015625 -1.453125 -2.3125q-0.515625 -1.3125 -0.515625 -2.78125q0 -1.96875 0.875 -3.59375q0.875 -1.625 2.4375 -2.578125q1.578125 -0.96875 3.640625 -0.96875q1.9375 0 3.421875 0.890625q1.5 0.890625 2.21875 2.40625l-1.75 0.5625q-0.59375 -1.0625 -1.640625 -1.65625q-1.046875 -0.609375 -2.328125 -0.609375q-1.390625 0 -2.546875 0.71875q-1.140625 0.71875 -1.828125 1.984375q-0.671875 1.25 -0.671875 2.84375q0 1.578125 0.6875 2.859375q0.703125 1.265625 1.84375 2.03125q1.15625 0.765625 2.53125 0.765625q0.90625 0 1.75 -0.3125q0.84375 -0.328125 1.46875 -0.875q0.625 -0.546875 0.84375 -1.1875l1.78125 0.53125q-0.375 0.984375 -1.25 1.78125q-0.859375 0.78125 -2.015625 1.21875q-1.15625 0.4375 -2.484375 0.4375zm29.259232 -0.265625l-1.8125 0l0 -7.75q0 -2.4375 -0.78125 -3.578125q-0.765625 -1.140625 -2.28125 -1.140625q-1.578125 0 -2.8125 1.125q-1.234375 1.109375 -1.75 2.859375l0 8.484375l-1.8125 0l0 -7.75q0 -2.453125 -0.75 -3.578125q-0.734375 -1.140625 -2.28125 -1.140625q-1.546875 0 -2.8125 1.09375q-1.25 1.078125 -1.75 2.875l0 8.5l-1.8125 0l0 -13.890625l1.65625 0l0 3.140625q0.875 -1.625 2.25 -2.5q1.375 -0.875 3.046875 -0.875q1.734375 0 2.796875 0.984375q1.078125 0.984375 1.3125 2.578125q0.953125 -1.75 2.296875 -2.65625q1.359375 -0.90625 3.0625 -0.90625q1.171875 0 1.984375 0.421875q0.8125 0.421875 1.296875 1.21875q0.5 0.78125 0.71875 1.890625q0.234375 1.109375 0.234375 2.46875l0 8.125z" fill-rule="nonzero"/><path fill="#000000" d="m386.02463 157.37453q-2.0 0 -3.625 -1.0q-1.625 -1.0 -2.421875 -2.625l1.1875 -0.90625q0.75 1.3125 2.046875 2.109375q1.296875 0.796875 2.84375 0.796875q1.328125 0 2.375 -0.59375q1.0625 -0.578125 1.6875 -1.625q0.625 -1.03125 0.625 -2.390625q0 -1.3125 -0.609375 -2.3125q-0.59375 -1.0 -1.625 -1.546875q-1.015625 -0.5625 -2.296875 -0.5625q-1.234375 0 -2.359375 0.546875q-1.109375 0.546875 -1.796875 1.578125l-1.6875 0l2.109375 -10.65625l9.140625 0l0 1.671875l-7.78125 0l-1.3125 6.796875q0.703125 -0.734375 1.703125 -1.140625q1.015625 -0.421875 2.203125 -0.421875q1.71875 0 3.125 0.78125q1.40625 0.765625 2.21875 2.125q0.828125 1.359375 0.828125 3.109375q0 1.875 -0.890625 3.28125q-0.890625 1.421875 -2.390625 2.203125q-1.484375 0.78125 -3.296875 0.78125zm15.574463 -3.703125q-1.53125 0 -2.796875 -0.5625q-1.265625 -0.578125 -2.21875 -1.59375q-0.9375 -1.015625 -1.453125 -2.3125q-0.515625 -1.3125 -0.515625 -2.78125q0 -1.96875 0.875 -3.59375q0.875 -1.625 2.4375 -2.578125q1.578125 -0.96875 3.640625 -0.96875q1.9375 0 3.421875 0.890625q1.5 0.890625 2.21875 2.40625l-1.75 0.5625q-0.59375 -1.0625 -1.640625 -1.65625q-1.046875 -0.609375 -2.328125 -0.609375q-1.390625 0 -2.546875 0.71875q-1.140625 0.71875 -1.828125 1.984375q-0.671875 1.25 -0.671875 2.84375q0 1.578125 0.6875 2.859375q0.703125 1.265625 1.84375 2.03125q1.15625 0.765625 2.53125 0.765625q0.90625 0 1.75 -0.3125q0.84375 -0.328125 1.46875 -0.875q0.625 -0.546875 0.84375 -1.1875l1.78125 0.53125q-0.375 0.984375 -1.25 1.78125q-0.859375 0.78125 -2.015625 1.21875q-1.15625 0.4375 -2.484375 0.4375zm29.259247 -0.265625l-1.8125 0l0 -7.75q0 -2.4375 -0.78125 -3.578125q-0.765625 -1.140625 -2.28125 -1.140625q-1.578125 0 -2.8125 1.125q-1.234375 1.109375 -1.75 2.859375l0 8.484375l-1.8125 0l0 -7.75q0 -2.453125 -0.75 -3.578125q-0.734375 -1.140625 -2.28125 -1.140625q-1.546875 0 -2.8125 1.09375q-1.25 1.078125 -1.75 2.875l0 8.5l-1.8125 0l0 -13.890625l1.65625 0l0 3.140625q0.875 -1.625 2.25 -2.5q1.375 -0.875 3.046875 -0.875q1.734375 0 2.796875 0.984375q1.078125 0.984375 1.3125 2.578125q0.953125 -1.75 2.296875 -2.65625q1.359375 -0.90625 3.0625 -0.90625q1.171875 0 1.984375 0.421875q0.8125 0.421875 1.296875 1.21875q0.5 0.78125 0.71875 1.890625q0.234375 1.109375 0.234375 2.46875l0 8.125z" fill-rule="nonzero"/><path fill="#000000" d="m554.2603 151.74953l0 1.65625l-9.046875 0l0 -1.65625l3.796875 0l0 -11.40625q-0.21875 0.328125 -0.734375 0.703125q-0.5 0.359375 -1.15625 0.6875q-0.65625 0.3125 -1.296875 0.53125q-0.625 0.21875 -1.171875 0.21875l0 -1.765625q0.625 0 1.34375 -0.34375q0.71875 -0.34375 1.375 -0.796875q0.671875 -0.453125 1.125 -0.859375q0.453125 -0.40625 0.515625 -0.53125l1.859375 0l0 13.5625l3.390625 0zm15.4244995 -6.15625q0 2.34375 -0.875 4.171875q-0.859375 1.828125 -2.375 2.875q-1.515625 1.03125 -3.4375 1.03125q-1.921875 0 -3.4375 -1.03125q-1.5 -1.046875 -2.375 -2.875q-0.875 -1.828125 -0.875 -4.171875q0 -2.34375 0.875 -4.171875q0.875 -1.828125 2.375 -2.875q1.515625 -1.046875 3.4375 -1.046875q1.921875 0 3.4375 1.046875q1.515625 1.046875 2.375 2.875q0.875 1.828125 0.875 4.171875zm-1.828125 0q0 -1.890625 -0.625 -3.328125q-0.609375 -1.4375 -1.703125 -2.25q-1.09375 -0.8125 -2.53125 -0.8125q-1.4375 0 -2.53125 0.8125q-1.09375 0.8125 -1.71875 2.25q-0.625 1.4375 -0.625 3.328125q0 1.890625 0.625 3.34375q0.625 1.4375 1.71875 2.234375q1.09375 0.796875 2.53125 0.796875q1.4375 0 2.53125 -0.8125q1.09375 -0.8125 1.703125 -2.234375q0.625 -1.4375 0.625 -3.328125zm11.329163 8.078125q-1.53125 0 -2.796875 -0.5625q-1.265625 -0.578125 -2.21875 -1.59375q-0.9375 -1.015625 -1.453125 -2.3125q-0.515625 -1.3125 -0.515625 -2.78125q0 -1.96875 0.875 -3.59375q0.875 -1.625 2.4375 -2.578125q1.578125 -0.96875 3.640625 -0.96875q1.9375 0 3.421875 0.890625q1.5 0.890625 2.21875 2.40625l-1.75 0.5625q-0.59375 -1.0625 -1.640625 -1.65625q-1.046875 -0.609375 -2.328125 -0.609375q-1.390625 0 -2.546875 0.71875q-1.140625 0.71875 -1.828125 1.984375q-0.671875 1.25 -0.671875 2.84375q0 1.578125 0.6875 2.859375q0.703125 1.265625 1.84375 2.03125q1.15625 0.765625 2.53125 0.765625q0.90625 0 1.75 -0.3125q0.84375 -0.328125 1.46875 -0.875q0.625 -0.546875 0.84375 -1.1875l1.78125 0.53125q-0.375 0.984375 -1.25 1.78125q-0.859375 0.78125 -2.015625 1.21875q-1.15625 0.4375 -2.484375 0.4375zm29.259216 -0.265625l-1.8125 0l0 -7.75q0 -2.4375 -0.78125 -3.578125q-0.765625 -1.140625 -2.28125 -1.140625q-1.578125 0 -2.8125 1.125q-1.234375 1.109375 -1.75 2.859375l0 8.484375l-1.8125 0l0 -7.75q0 -2.453125 -0.75 -3.578125q-0.734375 -1.140625 -2.28125 -1.140625q-1.546875 0 -2.8125 1.09375q-1.25 1.078125 -1.75 2.875l0 8.5l-1.8125 0l0 -13.890625l1.65625 0l0 3.140625q0.875 -1.625 2.25 -2.5q1.375 -0.875 3.046875 -0.875q1.734375 0 2.796875 0.984375q1.078125 0.984375 1.3125 2.578125q0.953125 -1.75 2.296875 -2.65625q1.359375 -0.90625 3.0625 -0.90625q1.171875 0 1.984375 0.421875q0.8125 0.421875 1.296875 1.21875q0.5 0.78125 0.71875 1.890625q0.234375 1.109375 0.234375 2.46875l0 8.125z" fill-rule="nonzero"/><path fill="#000000" fill-opacity="0.0" d="m316.0 166.36482l0 42.992126" fill-rule="evenodd"/><path stroke="#000000" stroke-width="1.0" stroke-linejoin="round" stroke-linecap="butt" d="m316.0 166.36482l0 42.992126" fill-rule="evenodd"/><path fill="#000000" fill-opacity="0.0" d="m494.33334 166.36482l0 42.992126" fill-rule="evenodd"/><path stroke="#000000" stroke-width="1.0" stroke-linejoin="round" stroke-linecap="butt" d="m494.33334 166.36482l0 42.992126" fill-rule="evenodd"/></g></svg>