<?xml version="1.0" encoding="UTF-8" standalone="no"?>
<svg
   version="1.1"
   viewBox="0 0 447.01575 427.99213"
   fill="none"
   stroke="none"
   stroke-linecap="square"
   stroke-miterlimit="10"
   id="svg50"
   sodipodi:docname="Fig 3.svg"
   width="447.01575"
   height="427.99213"
   inkscape:version="1.4 (1:1.4+202410161351+e7c3feb100)"
   inkscape:export-filename="Fig 3.png"
   inkscape:export-xdpi="300"
   inkscape:export-ydpi="300"
   xmlns:inkscape="http://www.inkscape.org/namespaces/inkscape"
   xmlns:sodipodi="http://sodipodi.sourceforge.net/DTD/sodipodi-0.dtd"
   xmlns="http://www.w3.org/2000/svg"
   xmlns:svg="http://www.w3.org/2000/svg">
  <defs
     id="defs50" />
  <sodipodi:namedview
     id="namedview50"
     pagecolor="#ffffff"
     bordercolor="#666666"
     borderopacity="1.0"
     inkscape:showpageshadow="2"
     inkscape:pageopacity="0.0"
     inkscape:pagecheckerboard="0"
     inkscape:deskcolor="#d1d1d1"
     inkscape:zoom="1.1458333"
     inkscape:cx="303.27274"
     inkscape:cy="257.89092"
     inkscape:window-width="1874"
     inkscape:window-height="1011"
     inkscape:window-x="46"
     inkscape:window-y="32"
     inkscape:window-maximized="1"
     inkscape:current-layer="svg50" />
  <path
     fill="#cfe2f3"
     d="M 48.86482,64.86482 H 227.5105 v 160.9134 H 48.86482 Z"
     fill-rule="evenodd"
     id="path5" />
  <path
     stroke="#000000"
     stroke-width="1"
     stroke-linejoin="round"
     stroke-linecap="butt"
     d="M 48.86482,64.86482 H 227.5105 v 160.9134 H 48.86482 Z"
     fill-rule="evenodd"
     id="path6" />
  <path
     fill="#cfe2f3"
     d="m 227.5105,64.86482 h 178.64569 v 160.9134 H 227.5105 Z"
     fill-rule="evenodd"
     id="path7" />
  <path
     stroke="#000000"
     stroke-width="1"
     stroke-linejoin="round"
     stroke-linecap="butt"
     d="m 227.5105,64.86482 h 178.64569 v 160.9134 H 227.5105 Z"
     fill-rule="evenodd"
     id="path8" />
  <path
     fill="#cfe2f3"
     d="M 48.86482,225.77823 H 227.5105 V 386.69159 H 48.86482 Z"
     fill-rule="evenodd"
     id="path9" />
  <path
     stroke="#000000"
     stroke-width="1"
     stroke-linejoin="round"
     stroke-linecap="butt"
     d="M 48.86482,225.77823 H 227.5105 V 386.69159 H 48.86482 Z"
     fill-rule="evenodd"
     id="path10" />
  <path
     fill="#cfe2f3"
     d="M 227.5105,225.77823 H 406.15619 V 386.69159 H 227.5105 Z"
     fill-rule="evenodd"
     id="path11" />
  <path
     stroke="#000000"
     stroke-width="1"
     stroke-linejoin="round"
     stroke-linecap="butt"
     d="M 227.5105,225.77823 H 406.15619 V 386.69159 H 227.5105 Z"
     fill-rule="evenodd"
     id="path12" />
  <path
     fill="#000000"
     fill-opacity="0"
     d="m 316.1168,189.458 0.063,69.03937"
     fill-rule="evenodd"
     id="path13" />
  <path
     stroke="#000000"
     stroke-width="1"
     stroke-linejoin="round"
     stroke-linecap="butt"
     d="m 316.1168,189.458 0.063,69.03937"
     fill-rule="evenodd"
     id="path14" />
  <path
     fill="#000000"
     fill-opacity="0"
     d="m 138.15616,189.458 0.063,69.03937"
     fill-rule="evenodd"
     id="path15" />
  <path
     stroke="#000000"
     stroke-width="1"
     stroke-linejoin="round"
     stroke-linecap="butt"
     d="m 138.15616,189.458 0.063,69.03937"
     fill-rule="evenodd"
     id="path16" />
  <path
     fill="#ff0000"
     d="m 33.21803,219.31073 h 11.37353 v -9.91531 h 9.33393 v 9.91531 h 11.37353 v 9.33392 H 53.92549 v 9.91532 h -9.33393 v -9.91532 H 33.21803 Z"
     fill-rule="evenodd"
     id="path17" />
  <path
     stroke="#000000"
     stroke-width="1"
     stroke-linejoin="round"
     stroke-linecap="butt"
     d="m 33.21803,219.31073 h 11.37353 v -9.91531 h 9.33393 v 9.91531 h 11.37353 v 9.33392 H 53.92549 v 9.91532 h -9.33393 v -9.91532 H 33.21803 Z"
     fill-rule="evenodd"
     id="path18" />
  <path
     fill="#000000"
     d="m 392.63025,219.96262 h 28.0072 v 8.03015 h -28.0072 z"
     fill-rule="evenodd"
     id="path19" />
  <path
     stroke="#000000"
     stroke-width="1"
     stroke-linejoin="round"
     stroke-linecap="butt"
     d="m 392.63025,219.96262 h 28.0072 v 8.03015 h -28.0072 z"
     fill-rule="evenodd"
     id="path20" />
  <path
     fill="#000000"
     fill-opacity="0"
     d="M 45.15355,58.5 H 148.14566 V 84.51575 H 45.15355 Z"
     fill-rule="evenodd"
     id="path21" />
  <path
     fill="#000000"
     d="m 68.9973,85.2875 q 0,2.34375 -0.875,4.17187 -0.85938,1.82813 -2.375,2.875 -1.51563,1.03125 -3.4375,1.03125 -1.92188,0 -3.4375,-1.03125 -1.5,-1.04687 -2.375,-2.875 -0.875,-1.82812 -0.875,-4.17187 0,-2.34375 0.875,-4.17188 0.875,-1.82812 2.375,-2.875 1.51562,-1.04687 3.4375,-1.04687 1.92187,0 3.4375,1.04687 1.51562,1.04688 2.375,2.875 0.875,1.82813 0.875,4.17188 z m -1.82813,0 q 0,-1.89063 -0.625,-3.32813 -0.60937,-1.4375 -1.70312,-2.25 -1.09375,-0.8125 -2.53125,-0.8125 -1.4375,0 -2.53125,0.8125 -1.09375,0.8125 -1.71875,2.25 -0.625,1.4375 -0.625,3.32813 0,1.89062 0.625,3.34375 0.625,1.4375 1.71875,2.23437 1.09375,0.79688 2.53125,0.79688 1.4375,0 2.53125,-0.8125 1.09375,-0.8125 1.70312,-2.23438 0.625,-1.4375 0.625,-3.32812 z M 72.20149,93.1 v -2.60938 h 1.57813 V 93.1 Z m 12.78801,3.39062 v -4.75 h -8.875 V 90.14687 L 85.58325,77.88125 H 86.802 v 12.20312 h 2.34375 v 1.65625 H 86.802 v 4.75 z M 78.03638,90.08437 H 85.177 V 80.725 Z m 19.00738,6.98438 q -2,0 -3.625,-1 -1.625,-1 -2.42187,-2.625 l 1.1875,-0.90625 q 0.75,1.3125 2.04687,2.10937 1.29688,0.79688 2.84375,0.79688 1.32813,0 2.375,-0.59375 1.0625,-0.57813 1.6875,-1.625 0.625,-1.03125 0.625,-2.39063 0,-1.3125 -0.60937,-2.3125 -0.59375,-1 -1.625,-1.54687 -1.01563,-0.5625 -2.29688,-0.5625 -1.23437,0 -2.35937,0.54687 -1.10938,0.54688 -1.79688,1.57813 h -1.6875 l 2.10938,-10.65625 h 9.14062 v 1.67187 H 94.85626 L 93.54376,86.35 q 0.70313,-0.73438 1.70313,-1.14063 1.01562,-0.42187 2.20312,-0.42187 1.71875,0 3.125,0.78125 1.40625,0.76562 2.21875,2.125 0.82813,1.35937 0.82813,3.10937 0,1.875 -0.89063,3.28125 -0.89062,1.42188 -2.39062,2.20313 -1.48438,0.78125 -3.29688,0.78125 z m 9.41343,-22.89063 6.76562,16.60938 6.75,-16.60938 h 1.9375 L 114.08219,93.1 h -1.71875 l -7.85938,-18.92188 z"
     fill-rule="nonzero"
     id="path22" />
  <path
     fill="#000000"
     fill-opacity="0"
     d="m 227.5105,58.5 h 58.01575 V 84.51575 H 227.5105 Z"
     fill-rule="evenodd"
     id="path23" />
  <path
     fill="#000000"
     d="m 251.35425,85.2875 q 0,2.34375 -0.875,4.17187 -0.85938,1.82813 -2.375,2.875 -1.51563,1.03125 -3.4375,1.03125 -1.92188,0 -3.4375,-1.03125 -1.5,-1.04687 -2.375,-2.875 -0.875,-1.82812 -0.875,-4.17187 0,-2.34375 0.875,-4.17188 0.875,-1.82812 2.375,-2.875 1.51562,-1.04687 3.4375,-1.04687 1.92187,0 3.4375,1.04687 1.51562,1.04688 2.375,2.875 0.875,1.82813 0.875,4.17188 z m -1.82813,0 q 0,-1.89063 -0.625,-3.32813 -0.60937,-1.4375 -1.70312,-2.25 -1.09375,-0.8125 -2.53125,-0.8125 -1.4375,0 -2.53125,0.8125 -1.09375,0.8125 -1.71875,2.25 -0.625,1.4375 -0.625,3.32813 0,1.89062 0.625,3.34375 0.625,1.4375 1.71875,2.23437 1.09375,0.79688 2.53125,0.79688 1.4375,0 2.53125,-0.8125 1.09375,-0.8125 1.70312,-2.23438 0.625,-1.4375 0.625,-3.32812 z m 4.55484,-11.10938 6.76563,16.60938 6.75,-16.60938 h 1.9375 L 261.70596,93.1 h -1.71875 l -7.85937,-18.92188 z"
     fill-rule="nonzero"
     id="path24" />
  <path
     fill="#000000"
     fill-opacity="0"
     d="M 316.1168,58.5 H 438.66798 V 84.51575 H 316.1168 Z"
     fill-rule="evenodd"
     id="path25" />
  <path
     fill="#000000"
     d="m 333.6485,86.67813 v -1.6875 h 7.78125 v 1.6875 z m 24.35828,-1.39063 q 0,2.34375 -0.875,4.17188 -0.85938,1.82812 -2.375,2.875 -1.51563,1.03125 -3.4375,1.03125 -1.92188,0 -3.4375,-1.03125 -1.5,-1.04688 -2.375,-2.875 -0.875,-1.82813 -0.875,-4.17188 0,-2.34375 0.875,-4.17187 0.875,-1.82813 2.375,-2.875 1.51562,-1.04688 3.4375,-1.04688 1.92187,0 3.4375,1.04688 1.51562,1.04687 2.375,2.875 0.875,1.82812 0.875,4.17187 z m -1.82813,0 q 0,-1.89062 -0.625,-3.32812 -0.60937,-1.4375 -1.70312,-2.25 -1.09375,-0.8125 -2.53125,-0.8125 -1.4375,0 -2.53125,0.8125 -1.09375,0.8125 -1.71875,2.25 -0.625,1.4375 -0.625,3.32812 0,1.89063 0.625,3.34375 0.625,1.4375 1.71875,2.23438 1.09375,0.79687 2.53125,0.79687 1.4375,0 2.53125,-0.8125 1.09375,-0.8125 1.70312,-2.23437 0.625,-1.4375 0.625,-3.32813 z m 5.03229,7.8125 v -2.60937 h 1.57812 V 93.1 Z m 12.44427,-6.29687 q 1.20313,0.1875 2.04688,0.85937 0.85937,0.67188 1.34375,1.6875 0.48437,1 0.48437,2.28125 0,1.60938 -0.78125,2.82813 -0.76562,1.21875 -2.15625,1.89062 -1.39062,0.67188 -3.23437,0.67188 -2.01563,0 -3.54688,-0.8125 -1.51562,-0.8125 -2.28125,-2.25 l 1.25,-1.15625 q 0.59375,1.15625 1.73438,1.85937 1.14062,0.70313 2.84375,0.70313 1.98437,0 3.14062,-0.98438 1.15625,-0.96875 1.15625,-2.78125 0,-1.8125 -1.21875,-2.89062 -1.20312,-1.07813 -3.4375,-1.07813 h -0.67187 v -1.54687 h 0.71875 q 2.04687,0 3.14062,-0.95313 1.09375,-0.96875 1.09375,-2.45312 0,-1.09375 -0.51562,-1.8125 -0.5,-0.71875 -1.35938,-1.09375 -0.85937,-0.375 -1.98437,-0.375 -1.51563,0 -2.6875,0.6875 -1.15625,0.67187 -1.73438,1.875 l -1.17187,-1.125 q 0.45312,-0.92188 1.29687,-1.60938 0.85938,-0.70312 2,-1.09375 1.14063,-0.39062 2.45313,-0.39062 1.65625,0 2.90625,0.60937 1.25,0.59375 1.96875,1.67188 0.71875,1.0625 0.71875,2.5 0,1.0625 -0.42188,1.96875 -0.42187,0.90625 -1.21875,1.51562 -0.78125,0.60938 -1.875,0.79688 z m 6.45734,-12.625 6.76563,16.60937 6.75,-16.60937 h 1.9375 L 387.73755,93.1 h -1.71875 l -7.85937,-18.92187 z"
     fill-rule="nonzero"
     id="path26" />
  <path
     fill="#000000"
     fill-opacity="0"
     d="m 39.88846,217.80447 h 98.33069 v 26.01575 H 39.88846 Z"
     fill-rule="evenodd"
     id="path27" />
  <path
     fill="#000000"
     d="m 66.5139,250.7482 v 1.65625 h -9.04688 v -1.65625 h 3.79688 v -11.40625 q -0.21875,0.32812 -0.73438,0.70312 -0.5,0.35938 -1.15625,0.6875 -0.65625,0.3125 -1.29687,0.53125 -0.625,0.21875 -1.17188,0.21875 v -1.76562 q 0.625,0 1.34375,-0.34375 0.71875,-0.34375 1.375,-0.79688 0.67188,-0.45312 1.125,-0.85937 0.45313,-0.40625 0.51563,-0.53125 h 1.85937 v 13.5625 z m 1.57091,-17.26563 6.76562,16.60938 6.75,-16.60938 h 1.9375 l -7.82812,18.92188 h -1.71875 l -7.85938,-18.92188 z"
     fill-rule="nonzero"
     id="path28" />
  <path
     fill="#000000"
     fill-opacity="0"
     d="m 95.60498,142.13911 h 85.16537 v 26.01573 H 95.60498 Z"
     fill-rule="evenodd"
     id="path29" />
  <path
     fill="#000000"
     d="m 126.24606,168.9266 q 0,2.34375 -0.875,4.17187 -0.85938,1.82813 -2.375,2.875 -1.51563,1.03125 -3.4375,1.03125 -1.92188,0 -3.4375,-1.03125 -1.5,-1.04687 -2.375,-2.875 -0.875,-1.82812 -0.875,-4.17187 0,-2.34375 0.875,-4.17188 0.875,-1.82812 2.375,-2.875 1.51562,-1.04687 3.4375,-1.04687 1.92187,0 3.4375,1.04687 1.51562,1.04688 2.375,2.875 0.875,1.82813 0.875,4.17188 z m -1.82813,0 q 0,-1.89063 -0.625,-3.32813 -0.60937,-1.4375 -1.70312,-2.25 -1.09375,-0.8125 -2.53125,-0.8125 -1.4375,0 -2.53125,0.8125 -1.09375,0.8125 -1.71875,2.25 -0.625,1.4375 -0.625,3.32813 0,1.89062 0.625,3.34375 0.625,1.4375 1.71875,2.23437 1.09375,0.79688 2.53125,0.79688 1.4375,0 2.53125,-0.8125 1.09375,-0.8125 1.70312,-2.23438 0.625,-1.4375 0.625,-3.32812 z m 5.03232,7.8125 v -2.60938 h 1.57813 v 2.60938 z m 12.44425,-6.29688 q 1.20312,0.1875 2.04687,0.85938 0.85938,0.67187 1.34375,1.6875 0.48438,1 0.48438,2.28125 0,1.60937 -0.78125,2.82812 -0.76563,1.21875 -2.15625,1.89063 -1.39063,0.67187 -3.23438,0.67187 -2.01562,0 -3.54687,-0.8125 -1.51563,-0.8125 -2.28125,-2.25 l 1.25,-1.15625 q 0.59375,1.15625 1.73437,1.85938 1.14063,0.70312 2.84375,0.70312 1.98438,0 3.14063,-0.98437 1.15625,-0.96875 1.15625,-2.78125 0,-1.8125 -1.21875,-2.89063 -1.20313,-1.07812 -3.4375,-1.07812 h -0.67188 v -1.54688 h 0.71875 q 2.04688,0 3.14063,-0.95312 1.09375,-0.96875 1.09375,-2.45313 0,-1.09375 -0.51563,-1.8125 -0.5,-0.71875 -1.35937,-1.09375 -0.85938,-0.375 -1.98438,-0.375 -1.51562,0 -2.6875,0.6875 -1.15625,0.67188 -1.73437,1.875 l -1.17188,-1.125 q 0.45313,-0.92187 1.29688,-1.60937 0.85937,-0.70313 2,-1.09375 1.14062,-0.39063 2.45312,-0.39063 1.65625,0 2.90625,0.60938 1.25,0.59375 1.96875,1.67187 0.71875,1.0625 0.71875,2.5 0,1.0625 -0.42187,1.96875 -0.42188,0.90625 -1.21875,1.51563 -0.78125,0.60937 -1.875,0.79687 z m 6.4573,-12.625 6.76563,16.60938 6.75,-16.60938 h 1.9375 l -7.82813,18.92188 h -1.71875 l -7.85937,-18.92188 z"
     fill-rule="nonzero"
     id="path30" />
  <path
     fill="#000000"
     fill-opacity="0"
     d="m 216.36615,180.89108 h 67.33856 v 26.01575 h -67.33856 z"
     fill-rule="evenodd"
     id="path31" />
  <path
     fill="#000000"
     d="m 247.0072,207.6786 q 0,2.34375 -0.875,4.17188 -0.85938,1.82812 -2.375,2.875 -1.51563,1.03125 -3.4375,1.03125 -1.92188,0 -3.4375,-1.03125 -1.5,-1.04688 -2.375,-2.875 -0.875,-1.82813 -0.875,-4.17188 0,-2.34375 0.875,-4.17187 0.875,-1.82813 2.375,-2.875 1.51562,-1.04688 3.4375,-1.04688 1.92187,0 3.4375,1.04688 1.51562,1.04687 2.375,2.875 0.875,1.82812 0.875,4.17187 z m -1.82813,0 q 0,-1.89062 -0.625,-3.32812 -0.60937,-1.4375 -1.70312,-2.25 -1.09375,-0.8125 -2.53125,-0.8125 -1.4375,0 -2.53125,0.8125 -1.09375,0.8125 -1.71875,2.25 -0.625,1.4375 -0.625,3.32812 0,1.89063 0.625,3.34375 0.625,1.4375 1.71875,2.23438 1.09375,0.79687 2.53125,0.79687 1.4375,0 2.53125,-0.8125 1.09375,-0.8125 1.70312,-2.23437 0.625,-1.4375 0.625,-3.32813 z m 4.55485,-11.10937 6.76562,16.60937 6.75,-16.60937 h 1.9375 l -7.82812,18.92187 h -1.71875 l -7.85938,-18.92187 z"
     fill-rule="nonzero"
     id="path32" />
  <path
     fill="#000000"
     fill-opacity="0"
     d="m 271.7047,144.42651 h 102.99213 v 26.01575 H 271.7047 Z"
     fill-rule="evenodd"
     id="path33" />
  <path
     fill="#000000"
     d="m 282.4391,172.60464 v -1.6875 h 7.78125 v 1.6875 z m 24.35828,-1.39062 q 0,2.34375 -0.875,4.17187 -0.85938,1.82813 -2.375,2.875 -1.51563,1.03125 -3.4375,1.03125 -1.92188,0 -3.4375,-1.03125 -1.5,-1.04687 -2.375,-2.875 -0.875,-1.82812 -0.875,-4.17187 0,-2.34375 0.875,-4.17188 0.875,-1.82812 2.375,-2.875 1.51562,-1.04687 3.4375,-1.04687 1.92187,0 3.4375,1.04687 1.51562,1.04688 2.375,2.875 0.875,1.82813 0.875,4.17188 z m -1.82813,0 q 0,-1.89063 -0.625,-3.32813 -0.60937,-1.4375 -1.70312,-2.25 -1.09375,-0.8125 -2.53125,-0.8125 -1.4375,0 -2.53125,0.8125 -1.09375,0.8125 -1.71875,2.25 -0.625,1.4375 -0.625,3.32813 0,1.89062 0.625,3.34375 0.625,1.4375 1.71875,2.23437 1.09375,0.79688 2.53125,0.79688 1.4375,0 2.53125,-0.8125 1.09375,-0.8125 1.70312,-2.23438 0.625,-1.4375 0.625,-3.32812 z m 5.03232,7.8125 v -2.60938 h 1.57812 v 2.60938 z m 18.2099,-6.23438 q 0,-1.79687 -0.875,-3.23437 -0.85938,-1.45313 -2.34375,-2.3125 -1.48438,-0.85938 -3.29688,-0.85938 -1.1875,0 -2.25,0.4375 -1.04687,0.42188 -1.82812,1.20313 -0.76563,0.76562 -1.17188,1.79687 0,-2.60937 0.65625,-4.4375 0.65625,-1.84375 1.82813,-2.82812 1.17187,-0.98438 2.75,-0.98438 1.48437,0 2.6875,0.8125 1.21875,0.8125 1.78125,2.17188 l 1.17187,-1.07813 q -0.76562,-1.625 -2.26562,-2.5625 -1.48438,-0.95312 -3.375,-0.95312 -2.07813,0 -3.65625,1.26562 -1.57813,1.25 -2.45313,3.76563 -0.875,2.51562 -0.875,6.375 0,2.45312 0.875,4.25 0.875,1.78125 2.40625,2.73437 1.53125,0.9375 3.51563,0.9375 1.89062,0 3.40625,-0.875 1.51562,-0.89062 2.40625,-2.35937 0.90625,-1.48438 0.90625,-3.26563 z m -6.67188,4.90625 q -1.35937,0 -2.48437,-0.67187 -1.10938,-0.67188 -1.79688,-1.78125 -0.67187,-1.125 -0.67187,-2.45313 0,-1.35937 0.65625,-2.46875 0.67187,-1.10937 1.79687,-1.76562 1.14063,-0.67188 2.5,-0.67188 1.32813,0 2.45313,0.67188 1.125,0.65625 1.79687,1.78125 0.6875,1.10937 0.6875,2.45312 0,1.32813 -0.6875,2.45313 -0.67187,1.10937 -1.79687,1.78125 -1.125,0.67187 -2.45313,0.67187 z m 14.82364,5.29688 q -2,0 -3.625,-1 -1.625,-1 -2.42187,-2.625 l 1.1875,-0.90625 q 0.75,1.3125 2.04687,2.10937 1.29688,0.79688 2.84375,0.79688 1.32813,0 2.375,-0.59375 1.0625,-0.57813 1.6875,-1.625 0.625,-1.03125 0.625,-2.39063 0,-1.3125 -0.60937,-2.3125 -0.59375,-1 -1.625,-1.54687 -1.01563,-0.5625 -2.29688,-0.5625 -1.23437,0 -2.35937,0.54687 -1.10938,0.54688 -1.79688,1.57813 h -1.6875 l 2.10938,-10.65625 h 9.14062 v 1.67187 h -7.78125 l -1.3125,6.79688 q 0.70313,-0.73438 1.70313,-1.14063 1.01562,-0.42187 2.20312,-0.42187 1.71875,0 3.125,0.78125 1.40625,0.76562 2.21875,2.125 0.82813,1.35937 0.82813,3.10937 0,1.875 -0.89063,3.28125 -0.89062,1.42188 -2.39062,2.20313 -1.48438,0.78125 -3.29688,0.78125 z m 9.41345,-22.89063 6.76563,16.60938 6.75,-16.60938 h 1.9375 l -7.82813,18.92188 h -1.71875 l -7.85937,-18.92188 z"
     fill-rule="nonzero"
     id="path34" />
  <path
     fill="#000000"
     fill-opacity="0"
     d="m 302.5,217.80447 h 136.18896 v 26.01575 H 302.5 Z"
     fill-rule="evenodd"
     id="path35" />
  <path
     fill="#000000"
     d="m 360.8156,245.98257 v -1.6875 h 7.78125 v 1.6875 z m 10.57971,6.42187 q 0,-0.90625 0.15625,-1.82812 0.17188,-0.92188 0.625,-1.82813 0.45313,-0.90625 1.32813,-1.73437 0.875,-0.84375 2.3125,-1.59375 0.78125,-0.40625 1.60937,-0.78125 0.82813,-0.39063 1.54688,-0.85938 0.73437,-0.46875 1.17187,-1.0625 0.45313,-0.60937 0.45313,-1.42187 0,-0.67188 -0.39063,-1.3125 -0.39062,-0.64063 -1.17187,-1.03125 -0.78125,-0.40625 -1.96875,-0.40625 -0.84375,0 -1.54688,0.25 -0.6875,0.23437 -1.21875,0.59375 -0.53125,0.35937 -0.90625,0.71875 -0.375,0.35937 -0.60937,0.59375 l -1.15625,-1.25 q 0.14062,-0.15625 0.60937,-0.5625 0.46875,-0.42188 1.1875,-0.875 0.73438,-0.45313 1.73438,-0.76563 1,-0.32812 2.20312,-0.32812 1.625,0 2.78125,0.57812 1.17188,0.5625 1.78125,1.53125 0.60938,0.95313 0.60938,2.07813 0,1.09375 -0.46875,1.875 -0.46875,0.78125 -1.20313,1.35937 -0.71875,0.57813 -1.51562,1 -0.78125,0.40625 -1.42188,0.6875 -1.25,0.59375 -2.10937,1.1875 -0.84375,0.57813 -1.35938,1.1875 -0.5,0.59375 -0.78125,1.17188 -0.28125,0.5625 -0.39062,1.17187 h 9.54687 v 1.65625 z m 14.26618,-18.92187 6.76562,16.60937 6.75,-16.60937 h 1.9375 l -7.82812,18.92187 h -1.71875 l -7.85938,-18.92187 z"
     fill-rule="nonzero"
     id="path36" />
  <path
     fill="#000000"
     fill-opacity="0"
     d="m 45.15355,342.11942 h 107.18111 v 26.01575 H 45.15355 Z"
     fill-rule="evenodd"
     id="path37" />
  <path
     fill="#000000"
     d="m 75.79462,368.90692 q 0,2.34375 -0.875,4.17188 -0.85938,1.82812 -2.375,2.875 -1.51563,1.03125 -3.4375,1.03125 -1.92188,0 -3.4375,-1.03125 -1.5,-1.04688 -2.375,-2.875 -0.875,-1.82813 -0.875,-4.17188 0,-2.34375 0.875,-4.17187 0.875,-1.82813 2.375,-2.875 1.51562,-1.04688 3.4375,-1.04688 1.92187,0 3.4375,1.04688 1.51562,1.04687 2.375,2.875 0.875,1.82812 0.875,4.17187 z m -1.82813,0 q 0,-1.89062 -0.625,-3.32812 -0.60937,-1.4375 -1.70312,-2.25 -1.09375,-0.8125 -2.53125,-0.8125 -1.4375,0 -2.53125,0.8125 -1.09375,0.8125 -1.71875,2.25 -0.625,1.4375 -0.625,3.32812 0,1.89063 0.625,3.34375 0.625,1.4375 1.71875,2.23438 1.09375,0.79687 2.53125,0.79687 1.4375,0 2.53125,-0.8125 1.09375,-0.8125 1.70312,-2.23437 0.625,-1.4375 0.625,-3.32813 z m 5.03232,7.8125 v -2.60937 h 1.57813 v 2.60937 z m 12.788,3.39063 v -4.75 h -8.875 v -1.59375 l 9.46875,-12.26563 h 1.21875 v 12.20313 h 2.34375 v 1.65625 h -2.34375 v 4.75 z m -6.95313,-6.40625 h 7.14063 v -9.35938 z m 13.30655,-15.90625 6.76563,16.60937 6.75,-16.60937 h 1.9375 l -7.82813,18.92187 h -1.71875 l -7.85937,-18.92187 z"
     fill-rule="nonzero"
     id="path38" />
  <path
     fill="#000000"
     fill-opacity="0"
     d="m 225.12466,342.11942 h 90.99213 v 26.01575 h -90.99213 z"
     fill-rule="evenodd"
     id="path39" />
  <path
     fill="#000000"
     d="m 248.9684,368.90692 q 0,2.34375 -0.875,4.17188 -0.85938,1.82812 -2.375,2.875 -1.51563,1.03125 -3.4375,1.03125 -1.92188,0 -3.4375,-1.03125 -1.5,-1.04688 -2.375,-2.875 -0.875,-1.82813 -0.875,-4.17188 0,-2.34375 0.875,-4.17187 0.875,-1.82813 2.375,-2.875 1.51562,-1.04688 3.4375,-1.04688 1.92187,0 3.4375,1.04688 1.51562,1.04687 2.375,2.875 0.875,1.82812 0.875,4.17187 z m -1.82813,0 q 0,-1.89062 -0.625,-3.32812 -0.60937,-1.4375 -1.70312,-2.25 -1.09375,-0.8125 -2.53125,-0.8125 -1.4375,0 -2.53125,0.8125 -1.09375,0.8125 -1.71875,2.25 -0.625,1.4375 -0.625,3.32812 0,1.89063 0.625,3.34375 0.625,1.4375 1.71875,2.23438 1.09375,0.79687 2.53125,0.79687 1.4375,0 2.53125,-0.8125 1.09375,-0.8125 1.70312,-2.23437 0.625,-1.4375 0.625,-3.32813 z m 4.55484,-11.10937 6.76563,16.60937 6.75,-16.60937 h 1.9375 l -7.82813,18.92187 h -1.71875 l -7.85937,-18.92187 z"
     fill-rule="nonzero"
     id="path40" />
  <path
     fill="#000000"
     fill-opacity="0"
     d="m 311.9908,342.11942 h 107.18112 v 26.01575 H 311.9908 Z"
     fill-rule="evenodd"
     id="path41" />
  <path
     fill="#000000"
     d="m 322.7252,370.29755 v -1.6875 h 7.78125 v 1.6875 z m 24.35825,-1.39063 q 0,2.34375 -0.875,4.17188 -0.85938,1.82812 -2.375,2.875 -1.51563,1.03125 -3.4375,1.03125 -1.92188,0 -3.4375,-1.03125 -1.5,-1.04688 -2.375,-2.875 -0.87497,-1.82813 -0.87497,-4.17188 0,-2.34375 0.87497,-4.17187 0.875,-1.82813 2.375,-2.875 1.51562,-1.04688 3.4375,-1.04688 1.92187,0 3.4375,1.04688 1.51562,1.04687 2.375,2.875 0.875,1.82812 0.875,4.17187 z m -1.82813,0 q 0,-1.89062 -0.625,-3.32812 -0.60937,-1.4375 -1.70312,-2.25 -1.09375,-0.8125 -2.53125,-0.8125 -1.4375,0 -2.53125,0.8125 -1.09375,0.8125 -1.71875,2.25 -0.625,1.4375 -0.625,3.32812 0,1.89063 0.625,3.34375 0.625,1.4375 1.71875,2.23438 1.09375,0.79687 2.53125,0.79687 1.4375,0 2.53125,-0.8125 1.09375,-0.8125 1.70312,-2.23437 0.625,-1.4375 0.625,-3.32813 z m 5.03235,7.8125 v -2.60937 h 1.57812 v 2.60937 z m 12.78802,3.39063 v -4.75 h -8.875 v -1.59375 l 9.46875,-12.26563 h 1.21875 v 12.20313 h 2.34375 v 1.65625 h -2.34375 v 4.75 z m -6.95312,-6.40625 h 7.14062 v -9.35938 z m 19.00738,6.98437 q -2,0 -3.625,-1 -1.625,-1 -2.42187,-2.625 l 1.1875,-0.90625 q 0.75,1.3125 2.04687,2.10938 1.29688,0.79687 2.84375,0.79687 1.32813,0 2.375,-0.59375 1.0625,-0.57812 1.6875,-1.625 0.625,-1.03125 0.625,-2.39062 0,-1.3125 -0.60937,-2.3125 -0.59375,-1 -1.625,-1.54688 -1.01563,-0.5625 -2.29688,-0.5625 -1.23437,0 -2.35937,0.54688 -1.10938,0.54687 -1.79688,1.57812 h -1.6875 l 2.10938,-10.65625 h 9.14062 v 1.67188 h -7.78125 l -1.3125,6.79687 q 0.70313,-0.73437 1.70313,-1.14062 1.01562,-0.42188 2.20312,-0.42188 1.71875,0 3.125,0.78125 1.40625,0.76563 2.21875,2.125 0.82813,1.35938 0.82813,3.10938 0,1.875 -0.89063,3.28125 -0.89062,1.42187 -2.39062,2.20312 -1.48438,0.78125 -3.29688,0.78125 z m 9.4134,-22.89062 6.76562,16.60937 6.75,-16.60937 h 1.9375 l -7.82812,18.92187 h -1.71875 l -7.85938,-18.92187 z"
     fill-rule="nonzero"
     id="path42" />
  <path
     fill="#000000"
     d="m 51.99205,44.09328 q 0,2.34375 -0.875,4.17187 -0.85938,1.82813 -2.375,2.875 -1.51563,1.03125 -3.4375,1.03125 -1.92188,0 -3.4375,-1.03125 -1.5,-1.04687 -2.375,-2.875 -0.875,-1.82812 -0.875,-4.17187 0,-2.34375 0.875,-4.17188 0.875,-1.82812 2.375,-2.875 1.51562,-1.04687 3.4375,-1.04687 1.92187,0 3.4375,1.04687 1.51562,1.04688 2.375,2.875 0.875,1.82813 0.875,4.17188 z m -1.82813,0 q 0,-1.89063 -0.625,-3.32813 -0.60937,-1.4375 -1.70312,-2.25 -1.09375,-0.8125 -2.53125,-0.8125 -1.4375,0 -2.53125,0.8125 -1.09375,0.8125 -1.71875,2.25 -0.625,1.4375 -0.625,3.32813 0,1.89062 0.625,3.34375 0.625,1.4375 1.71875,2.23437 1.09375,0.79688 2.53125,0.79688 1.4375,0 2.53125,-0.8125 1.09375,-0.8125 1.70312,-2.23438 0.625,-1.4375 0.625,-3.32812 z m 11.3292,8.07812 q -1.53125,0 -2.79688,-0.5625 -1.26562,-0.57812 -2.21875,-1.59375 -0.9375,-1.01562 -1.45312,-2.3125 -0.51563,-1.3125 -0.51563,-2.78125 0,-1.96875 0.875,-3.59375 0.875,-1.625 2.4375,-2.57812 1.57813,-0.96875 3.64063,-0.96875 1.9375,0 3.42187,0.89062 1.5,0.89063 2.21875,2.40625 l -1.75,0.5625 q -0.59375,-1.0625 -1.64062,-1.65625 -1.04688,-0.60937 -2.32813,-0.60937 -1.39062,0 -2.54687,0.71875 -1.14063,0.71875 -1.82813,1.98437 -0.67187,1.25 -0.67187,2.84375 0,1.57813 0.6875,2.85938 0.70312,1.26562 1.84375,2.03125 1.15625,0.76562 2.53125,0.76562 0.90625,0 1.75,-0.3125 0.84375,-0.32812 1.46875,-0.875 0.625,-0.54687 0.84375,-1.1875 l 1.78125,0.53125 q -0.375,0.98438 -1.25,1.78125 -0.85938,0.78125 -2.01563,1.21875 -1.15625,0.4375 -2.48437,0.4375 z m 29.25923,-0.26562 h -1.8125 v -7.75 q 0,-2.4375 -0.78125,-3.57813 -0.76562,-1.14062 -2.28125,-1.14062 -1.57812,0 -2.8125,1.125 -1.23437,1.10937 -1.75,2.85937 v 8.48438 h -1.8125 v -7.75 q 0,-2.45313 -0.75,-3.57813 -0.73437,-1.14062 -2.28125,-1.14062 -1.54687,0 -2.8125,1.09375 -1.25,1.07812 -1.75,2.875 v 8.5 H 70.0961 V 38.01515 h 1.65625 v 3.14063 q 0.875,-1.625 2.25,-2.5 1.375,-0.875 3.04688,-0.875 1.73437,0 2.79687,0.98437 1.07813,0.98438 1.3125,2.57813 0.95313,-1.75 2.29688,-2.65625 1.35937,-0.90625 3.0625,-0.90625 1.17187,0 1.98437,0.42187 0.8125,0.42188 1.29688,1.21875 0.5,0.78125 0.71875,1.89063 0.23437,1.10937 0.23437,2.46875 z"
     fill-rule="nonzero"
     id="path44" />
  <path
     fill="#000000"
     d="m 208.52463,55.87453 q -2,0 -3.625,-1 -1.625,-1 -2.42188,-2.625 l 1.1875,-0.90625 q 0.75,1.3125 2.04688,2.10937 1.29687,0.79688 2.84375,0.79688 1.32812,0 2.375,-0.59375 1.0625,-0.57813 1.6875,-1.625 0.625,-1.03125 0.625,-2.39063 0,-1.3125 -0.60938,-2.3125 -0.59375,-1 -1.625,-1.54687 -1.01562,-0.5625 -2.29687,-0.5625 -1.23438,0 -2.35938,0.54687 -1.10937,0.54688 -1.79687,1.57813 h -1.6875 l 2.10937,-10.65625 h 9.14063 v 1.67187 h -7.78125 l -1.3125,6.79688 q 0.70312,-0.73438 1.70312,-1.14063 1.01563,-0.42187 2.20313,-0.42187 1.71875,0 3.125,0.78125 1.40625,0.76562 2.21875,2.125 0.82812,1.35937 0.82812,3.10937 0,1.875 -0.89062,3.28125 -0.89063,1.42188 -2.39063,2.20313 -1.48437,0.78125 -3.29687,0.78125 z m 15.57446,-3.70313 q -1.53125,0 -2.79687,-0.5625 -1.26563,-0.57812 -2.21875,-1.59375 -0.9375,-1.01562 -1.45313,-2.3125 -0.51562,-1.3125 -0.51562,-2.78125 0,-1.96875 0.875,-3.59375 0.875,-1.625 2.4375,-2.57812 1.57812,-0.96875 3.64062,-0.96875 1.9375,0 3.42188,0.89062 1.5,0.89063 2.21875,2.40625 l -1.75,0.5625 q -0.59375,-1.0625 -1.64063,-1.65625 -1.04687,-0.60937 -2.32812,-0.60937 -1.39063,0 -2.54688,0.71875 -1.14062,0.71875 -1.82812,1.98437 -0.67188,1.25 -0.67188,2.84375 0,1.57813 0.6875,2.85938 0.70313,1.26562 1.84375,2.03125 1.15625,0.76562 2.53125,0.76562 0.90625,0 1.75,-0.3125 0.84375,-0.32812 1.46875,-0.875 0.625,-0.54687 0.84375,-1.1875 l 1.78125,0.53125 q -0.375,0.98438 -1.25,1.78125 -0.85937,0.78125 -2.01562,1.21875 -1.15625,0.4375 -2.48438,0.4375 z m 29.25925,-0.26562 h -1.8125 v -7.75 q 0,-2.4375 -0.78125,-3.57813 -0.76563,-1.14062 -2.28125,-1.14062 -1.57813,0 -2.8125,1.125 -1.23438,1.10937 -1.75,2.85937 v 8.48438 h -1.8125 v -7.75 q 0,-2.45313 -0.75,-3.57813 -0.73438,-1.14062 -2.28125,-1.14062 -1.54688,0 -2.8125,1.09375 -1.25,1.07812 -1.75,2.875 v 8.5 h -1.8125 V 38.01515 h 1.65625 v 3.14063 q 0.875,-1.625 2.25,-2.5 1.375,-0.875 3.04687,-0.875 1.73438,0 2.79688,0.98437 1.07812,0.98438 1.3125,2.57813 0.95312,-1.75 2.29687,-2.65625 1.35938,-0.90625 3.0625,-0.90625 1.17188,0 1.98438,0.42187 0.8125,0.42188 1.29687,1.21875 0.5,0.78125 0.71875,1.89063 0.23438,1.10937 0.23438,2.46875 z"
     fill-rule="nonzero"
     id="path45" />
  <path
     fill="#000000"
     d="m 376.7603,50.24953 v 1.65625 h -9.04687 v -1.65625 h 3.79687 V 38.84328 q -0.21875,0.32812 -0.73437,0.70312 -0.5,0.35938 -1.15625,0.6875 -0.65625,0.3125 -1.29688,0.53125 -0.625,0.21875 -1.17187,0.21875 v -1.76562 q 0.625,0 1.34375,-0.34375 0.71875,-0.34375 1.375,-0.79688 0.67187,-0.45312 1.125,-0.85937 0.45312,-0.40625 0.51562,-0.53125 h 1.85938 v 13.5625 z m 15.4245,-6.15625 q 0,2.34375 -0.875,4.17187 -0.85938,1.82813 -2.375,2.875 -1.51563,1.03125 -3.4375,1.03125 -1.92188,0 -3.4375,-1.03125 -1.5,-1.04687 -2.375,-2.875 -0.875,-1.82812 -0.875,-4.17187 0,-2.34375 0.875,-4.17188 0.875,-1.82812 2.375,-2.875 1.51562,-1.04687 3.4375,-1.04687 1.92187,0 3.4375,1.04687 1.51562,1.04688 2.375,2.875 0.875,1.82813 0.875,4.17188 z m -1.82813,0 q 0,-1.89063 -0.625,-3.32813 -0.60937,-1.4375 -1.70312,-2.25 -1.09375,-0.8125 -2.53125,-0.8125 -1.4375,0 -2.53125,0.8125 -1.09375,0.8125 -1.71875,2.25 -0.625,1.4375 -0.625,3.32813 0,1.89062 0.625,3.34375 0.625,1.4375 1.71875,2.23437 1.09375,0.79688 2.53125,0.79688 1.4375,0 2.53125,-0.8125 1.09375,-0.8125 1.70312,-2.23438 0.625,-1.4375 0.625,-3.32812 z m 11.32917,8.07812 q -1.53125,0 -2.79688,-0.5625 -1.26562,-0.57812 -2.21875,-1.59375 -0.9375,-1.01562 -1.45312,-2.3125 -0.51563,-1.3125 -0.51563,-2.78125 0,-1.96875 0.875,-3.59375 0.875,-1.625 2.4375,-2.57812 1.57813,-0.96875 3.64063,-0.96875 1.9375,0 3.42187,0.89062 1.5,0.89063 2.21875,2.40625 l -1.75,0.5625 q -0.59375,-1.0625 -1.64062,-1.65625 -1.04688,-0.60937 -2.32813,-0.60937 -1.39062,0 -2.54687,0.71875 -1.14063,0.71875 -1.82813,1.98437 -0.67187,1.25 -0.67187,2.84375 0,1.57813 0.6875,2.85938 0.70312,1.26562 1.84375,2.03125 1.15625,0.76562 2.53125,0.76562 0.90625,0 1.75,-0.3125 0.84375,-0.32812 1.46875,-0.875 0.625,-0.54687 0.84375,-1.1875 l 1.78125,0.53125 q -0.375,0.98438 -1.25,1.78125 -0.85938,0.78125 -2.01563,1.21875 -1.15625,0.4375 -2.48437,0.4375 z m 29.25921,-0.26562 h -1.8125 v -7.75 q 0,-2.4375 -0.78125,-3.57813 -0.76562,-1.14062 -2.28125,-1.14062 -1.57812,0 -2.8125,1.125 -1.23437,1.10937 -1.75,2.85937 v 8.48438 h -1.8125 v -7.75 q 0,-2.45313 -0.75,-3.57813 -0.73437,-1.14062 -2.28125,-1.14062 -1.54687,0 -2.8125,1.09375 -1.25,1.07812 -1.75,2.875 v 8.5 h -1.8125 V 38.01515 h 1.65625 v 3.14063 q 0.875,-1.625 2.25,-2.5 1.375,-0.875 3.04688,-0.875 1.73437,0 2.79687,0.98437 1.07813,0.98438 1.3125,2.57813 0.95313,-1.75 2.29688,-2.65625 1.35937,-0.90625 3.0625,-0.90625 1.17187,0 1.98437,0.42187 0.8125,0.42188 1.29688,1.21875 0.5,0.78125 0.71875,1.89063 0.23437,1.10937 0.23437,2.46875 z"
     fill-rule="nonzero"
     id="path46" />
  <path
     fill="#000000"
     fill-opacity="0"
     d="m 138.5,64.86482 v 42.99213"
     fill-rule="evenodd"
     id="path47" />
  <path
     stroke="#000000"
     stroke-width="1"
     stroke-linejoin="round"
     stroke-linecap="butt"
     d="m 138.5,64.86482 v 42.99213"
     fill-rule="evenodd"
     id="path48" />
  <path
     fill="#000000"
     fill-opacity="0"
     d="m 316.83334,64.86482 v 42.99213"
     fill-rule="evenodd"
     id="path49" />
  <path
     stroke="#000000"
     stroke-width="1"
     stroke-linejoin="round"
     stroke-linecap="butt"
     d="m 316.83334,64.86482 v 42.99213"
     fill-rule="evenodd"
     id="path50" />
</svg>
